# xmcd
#
# Track frame offsets:
#	150
#	10029
#	31505
#	56167
#	100296
#	112383
#	139247
#	187537
#	215379
#	219661
#	228108
#	243161
#
# Disc length: 3397 seconds
#
# Revision: 1
# Processed by: cddbd v1.5.2PL0 Copyright (c) Steve Scherf et al.
# Submitted via: audiograbber 1.83.01
#
DISCID=9b0d430c
DTITLE=Grateful Dead - 70-06-21A Pauley Ballroom, U of California, Berkeley CA
DYEAR=1900
DGENRE=
TTITLE0=Intro > Frozen Logger
TTITLE1=Casey Jones
TTITLE2=Cumberland Blues
TTITLE3=Easy Wind
TTITLE4=Mama Tried
TTITLE5=Candyman
TTITLE6=Not Fade Away
TTITLE7=St Stephen
TTITLE8=Drums
TTITLE9=Good Lovin'
TTITLE10=Drums
TTITLE11=Good Lovin'
EXTD=
EXTT0=
EXTT1=
EXTT2=
EXTT3=
EXTT4=
EXTT5=
EXTT6=
EXTT7=
EXTT8=
EXTT9=
EXTT10=
EXTT11=
PLAYORDER=
